#N canvas 827 239 527 327 12;
#X obj 159 119 loadbang;
#X obj 239 228 delay;
#X obj 159 176 + 100;
#X obj 159 147 random 800;
#X obj 159 228 t b b f;
#X obj 159 299 s flip_led_state @hv_event;
#X connect 0 0 3 0;
#X connect 1 0 3 0 48......................DB.........g....v4+++er++++b9+++G6+++Om++++;
#X connect 2 0 4 0;
#X connect 3 0 2 0;
#X connect 4 0 5 0;
#X connect 4 1 1 0;
#X connect 4 2 1 1;
