#N canvas 827 239 527 327 12;
#X obj 259 359 dac~;
#X obj 259 239 osc~;
#X obj 259 319 hip~ 1;
#X obj 259 119 random 24;
#X obj 259 159 + 36;
#X obj 259 199 mtof;
#X obj 259 79 metro 300;
#X obj 254 21 tgl 25 0 empty empty empty 17 7 0 10 #e4e4e4 #4d4d4d #373737 0 1;
#X obj 259 279 *~ 0.9;
#X obj 366 31 loadbang;
#X msg 366 60 1;
#X connect 1 0 8 0;
#X connect 2 0 0 1;
#X connect 2 0 0 0;
#X connect 3 0 4 0;
#X connect 4 0 5 0;
#X connect 5 0 1 0;
#X connect 6 0 3 0;
#X connect 7 0 6 0;
#X connect 8 0 2 0;
#X connect 9 0 10 0;
#X connect 10 0 6 0;
